<svg width="159" height="26" viewBox="0 0 159 26" fill="none" xmlns="http://www.w3.org/2000/svg">
<path d="M31.8 6C33.04 6 34.1133 6.20667 35.02 6.62C35.94 7.03333 36.6467 7.62 37.14 8.38C37.6333 9.14 37.88 10.04 37.88 11.08C37.88 12.1067 37.6333 13.0067 37.14 13.78C36.6467 14.54 35.94 15.1267 35.02 15.54C34.1133 15.94 33.04 16.14 31.8 16.14H28.98V20H25.74V6H31.8ZM31.62 13.5C32.5933 13.5 33.3333 13.2933 33.84 12.88C34.3467 12.4533 34.6 11.8533 34.6 11.08C34.6 10.2933 34.3467 9.69333 33.84 9.28C33.3333 8.85333 32.5933 8.64 31.62 8.64H28.98V13.5H31.62ZM52.3448 6L46.3848 17.08C45.8115 18.1467 45.1182 18.9533 44.3048 19.5C43.5048 20.0467 42.6315 20.32 41.6848 20.32C40.9515 20.32 40.1915 20.16 39.4048 19.84L40.1848 17.38C40.7448 17.5533 41.2115 17.64 41.5848 17.64C41.9848 17.64 42.3448 17.5467 42.6648 17.36C42.9848 17.16 43.2782 16.8533 43.5448 16.44L43.6648 16.28L38.1448 6H41.6048L45.3248 13.52L49.1648 6H52.3448ZM53.8845 6H65.1845V8.58H57.1045V11.46H60.9845C62.6779 11.46 63.9645 11.8133 64.8445 12.52C65.7379 13.2267 66.1845 14.2467 66.1845 15.58C66.1845 16.98 65.6912 18.0667 64.7045 18.84C63.7179 19.6133 62.3245 20 60.5245 20H53.8845V6ZM60.3445 17.6C61.1712 17.6 61.8045 17.44 62.2445 17.12C62.6845 16.7867 62.9045 16.3067 62.9045 15.68C62.9045 14.4533 62.0512 13.84 60.3445 13.84H57.1045V17.6H60.3445ZM80.7981 6V20H77.5981V8.64H72.7981L72.6981 11.56C72.6315 13.5467 72.4715 15.16 72.2181 16.4C71.9648 17.6267 71.5381 18.5733 70.9381 19.24C70.3515 19.8933 69.5248 20.22 68.4581 20.22C68.0181 20.22 67.4848 20.1467 66.8581 20L67.0581 17.26C67.2315 17.3133 67.4248 17.34 67.6381 17.34C68.4115 17.34 68.9515 16.8867 69.2581 15.98C69.5648 15.06 69.7581 13.6267 69.8381 11.68L70.0381 6H80.7981ZM91.0747 10.6C92.7814 10.6 94.088 10.98 94.9947 11.74C95.9147 12.5 96.3747 13.6267 96.3747 15.12C96.3747 16.7067 95.868 17.92 94.8547 18.76C93.8547 19.5867 92.4414 20 90.6147 20H84.2947V6H87.5147V10.6H91.0747ZM90.4347 17.6C91.2747 17.6 91.928 17.3933 92.3947 16.98C92.8747 16.5667 93.1147 15.9667 93.1147 15.18C93.1147 13.7267 92.2214 13 90.4347 13H87.5147V17.6H90.4347ZM98.7088 6H110.009V8.58H101.929V11.46H105.809C107.502 11.46 108.789 11.8133 109.669 12.52C110.562 13.2267 111.009 14.2467 111.009 15.58C111.009 16.98 110.515 18.0667 109.529 18.84C108.542 19.6133 107.149 20 105.349 20H98.7088V6ZM105.169 17.6C105.995 17.6 106.629 17.44 107.069 17.12C107.509 16.7867 107.729 16.3067 107.729 15.68C107.729 14.4533 106.875 13.84 105.169 13.84H101.929V17.6H105.169ZM122.837 17H116.337L115.097 20H111.777L118.017 6H121.217L127.477 20H124.077L122.837 17ZM121.817 14.54L119.597 9.18L117.377 14.54H121.817ZM142.174 6V20H138.934V14.26H132.574V20H129.334V6H132.574V11.52H138.934V6H142.174ZM151.101 14.36H148.861V20H145.641V6H148.861V11.66H151.181L154.861 6H158.281L153.701 12.76L158.421 20H154.741L151.101 14.36Z" fill="#3A95FF"/>
<circle cx="10" cy="13" r="10" fill="#3A95FF"/>
</svg>
